<svg xmlns="http://www.w3.org/2000/svg" width="1024" height="1024" viewBox="0 0 1024 1024" version="1.1"><path d="M 499.199 180.744 C 503.984 180.927, 512.084 180.928, 517.199 180.746 C 522.315 180.564, 518.400 180.414, 508.500 180.413 C 498.600 180.412, 494.415 180.561, 499.199 180.744 M 323.978 312.750 L 315.500 321.500 324.250 313.022 C 332.377 305.148, 333.456 304, 332.728 304 C 332.578 304, 328.641 307.938, 323.978 312.750 M 354.445 388 C 354.445 405.325, 354.582 412.413, 354.748 403.750 C 354.915 395.087, 354.915 380.913, 354.748 372.250 C 354.582 363.587, 354.445 370.675, 354.445 388 M 589.480 455.500 C 589.480 508.850, 589.602 530.528, 589.750 503.674 C 589.898 476.820, 589.898 433.170, 589.750 406.674 C 589.602 380.178, 589.480 402.150, 589.480 455.500 M 414.245 547.684 L 414 642.867 411.250 643.284 L 408.500 643.700 411.281 643.850 C 412.811 643.933, 414.277 643.438, 414.539 642.750 C 414.801 642.063, 414.897 598.975, 414.753 547 L 414.490 452.500 414.245 547.684 M 831.355 487.500 C 831.352 492.450, 831.521 494.601, 831.731 492.280 C 831.940 489.959, 831.943 485.909, 831.736 483.280 C 831.530 480.651, 831.358 482.550, 831.355 487.500 M 831.365 509.500 C 831.368 515, 831.536 517.122, 831.738 514.216 C 831.941 511.311, 831.939 506.811, 831.734 504.216 C 831.528 501.622, 831.363 504, 831.365 509.500 M 285.319 583.749 C 298.419 583.907, 319.569 583.907, 332.319 583.749 C 345.068 583.591, 334.350 583.461, 308.500 583.462 C 282.650 583.462, 272.218 583.591, 285.319 583.749 M 582.924 641.250 L 585.349 644 617.424 643.765 L 649.500 643.529 617.549 643.250 C 586.097 642.976, 585.559 642.936, 583.049 640.736 L 580.500 638.500 582.924 641.250 M 364.776 643.733 C 367.128 643.945, 370.728 643.942, 372.776 643.727 C 374.824 643.512, 372.900 643.339, 368.500 643.343 C 364.100 643.346, 362.424 643.522, 364.776 643.733 M 384.797 643.745 C 389.361 643.930, 396.561 643.929, 400.797 643.742 C 405.034 643.555, 401.300 643.404, 392.500 643.405 C 383.700 643.406, 380.234 643.559, 384.797 643.745 M 697.479 684.250 L 688.500 693.500 697.750 684.521 C 706.341 676.181, 707.455 675, 706.729 675 C 706.580 675, 702.418 679.163, 697.479 684.250 M 276 715.275 C 276 715.426, 279.488 718.914, 283.750 723.025 L 291.500 730.500 284.025 722.750 C 277.082 715.552, 276 714.544, 276 715.275 M 737.477 724.250 L 729.500 732.500 737.750 724.523 C 742.288 720.136, 746 716.424, 746 716.273 C 746 715.544, 744.885 716.588, 737.477 724.250 M 507.728 760.722 C 509.503 760.943, 512.653 760.946, 514.728 760.730 C 516.802 760.513, 515.350 760.333, 511.500 760.328 C 507.650 760.324, 505.952 760.501, 507.728 760.722 M 511.750 818.723 C 513.538 818.945, 516.462 818.945, 518.250 818.723 C 520.038 818.502, 518.575 818.320, 515 818.320 C 511.425 818.320, 509.962 818.502, 511.750 818.723" stroke="none" fill="#383738" fill-rule="evenodd"/><path d="M 479.500 181.692 C 471.688 182.388, 449.331 186.136, 438 188.649 C 324.621 213.797, 231.095 303.797, 201.521 416.213 C 188.904 464.173, 187.845 520.269, 198.637 568.897 C 203.238 589.630, 209.647 608.543, 219.256 629.750 L 225.260 643 319.630 643 L 414 643 414 544.981 L 414 446.962 423.220 457.731 C 428.290 463.654, 440.117 477.275, 449.501 488 C 458.885 498.725, 476.184 518.525, 487.945 532 C 530.171 580.382, 549.591 602.522, 555.012 608.461 C 558.044 611.783, 566.084 620.913, 572.880 628.750 L 585.237 643 617.118 643 L 649 643 649 530 L 649 417 704.842 417 L 760.685 417 763.335 425.750 C 770.461 449.282, 773.007 465.848, 773.706 493.243 C 774.314 517.071, 773.361 529.683, 769.451 549.528 C 764.408 575.129, 757.518 595.053, 745.427 619 C 722.288 664.830, 686.810 701.432, 640.500 727.252 C 564.332 769.718, 474.271 771.455, 394.878 731.988 C 377.201 723.200, 367.178 716.920, 346.595 701.731 L 338.690 695.898 299.360 696.065 C 265.666 696.208, 260.145 696.436, 260.827 697.655 C 262.488 700.623, 286.796 725.620, 297.730 735.604 C 353.306 786.351, 426.736 815.397, 505.249 817.690 C 533.511 818.516, 559.128 815.825, 587.374 809.064 C 668.573 789.629, 742.122 735.070, 786.575 661.297 C 809.588 623.103, 824.607 578.648, 829.580 534.002 C 831.339 518.208, 831.592 480.964, 830.034 467 C 825.943 430.329, 815.907 394.560, 799.938 359.745 L 798.675 356.991 694.363 357.245 L 590.051 357.500 589.939 460.800 C 589.843 547.888, 589.612 563.923, 588.462 562.969 C 587.713 562.347, 583.815 557.976, 579.800 553.257 C 575.785 548.537, 567.970 539.462, 562.434 533.088 C 548.469 517.011, 503.414 464.555, 454.135 407 C 431.296 380.325, 412.135 358.169, 411.555 357.765 C 410.975 357.361, 398.012 357.024, 382.750 357.015 L 355 357 355 470.500 L 355 584 308.622 584 C 272.674 584, 262.039 583.719, 261.331 582.750 C 258.931 579.467, 251.763 551.392, 249.272 535.518 C 247.084 521.573, 246.827 480.306, 248.839 466 C 255.087 421.593, 267.448 388.542, 291.034 353.179 C 327.538 298.447, 380.269 261.278, 444.500 245.002 C 469.407 238.690, 479.679 237.528, 510.500 237.531 C 539.363 237.534, 547.315 238.336, 571 243.631 C 608.613 252.040, 645.579 269.893, 678.680 295.638 L 686.861 302 725.503 302 L 764.144 302 753.544 290.049 C 727.825 261.055, 696.347 236.255, 662.821 218.573 C 613.159 192.381, 564.942 180.770, 507.500 181.169 C 494.300 181.261, 481.700 181.497, 479.500 181.692" stroke="none" fill="#141617" fill-rule="evenodd"/></svg>